# xmcd CD database file
#
# Track frame offsets:
#	183
#	16440
#	30705
#	44283
#	64003
#	86648
#	99578
#	116095
#	135145
#	161003
#
# Disc length: 2288 seconds
#
# Revision: 0
# Processed by: cddbd v1.4PL0 Copyright (c) Steve Scherf et al.
# Submitted via: CDex 1.50
#
DISCID=7a08ee0a
DTITLE=Howlin Wolf - Demon Drivin' Blues Man
DYEAR=1900
DGENRE=Blues
TTITLE0=Do the Do
TTITLE1=Highway 49
TTITLE2=Worried About You
TTITLE3=Poor Boy
TTITLE4=Wang Dang Doodle
TTITLE5=Cause of it All
TTITLE6=Killing Floor
TTITLE7=Commit a Crime
TTITLE8=Red Rooster
TTITLE9=Built for Comfort
EXTD=
EXTT0=
EXTT1=
EXTT2=
EXTT3=
EXTT4=
EXTT5=
EXTT6=
EXTT7=
EXTT8=
EXTT9=
PLAYORDER=
